<?xml version="1.0" encoding="UTF-8"?><svg id="Flat_Gradient" xmlns="http://www.w3.org/2000/svg" xmlns:xlink="http://www.w3.org/1999/xlink" viewBox="0 0 50 56"><defs><linearGradient id="linear-gradient" x1="0" y1="30" x2="50" y2="30" gradientTransform="translate(0 58) scale(1 -1)" gradientUnits="userSpaceOnUse"><stop offset="0" stop-color="#7f00ff"/><stop offset="1" stop-color="#e100ff"/></linearGradient></defs><path d="m11.9,29.04l8.46,22.36L0,29h11.89s.01.03.01.04Zm-.01-2.05L20.37,4.59.01,27h11.88s0-.01,0-.01Zm26.23,2.02l-8.47,22.39,20.35-22.4s-11.9-.02-11.88.01Zm0-2.01h11.88L29.65,4.61l8.46,22.35s.01.03.01.04Zm-2.18,0L25.97.65c-.15-.39-.53-.65-.96-.65s-.81.26-.96.65l-9.98,26.35h21.88,0Zm-21.88,2l9.98,26.35c.15.39.53.65.96.65s.81-.26.96-.65l9.98-26.35s-21.88,0-21.88,0Z" fill="url(#linear-gradient)" stroke-width="0"/></svg>