<?xml version="1.0" standalone="no"?>
<!DOCTYPE svg PUBLIC "-//W3C//DTD SVG 20010904//EN"
 "http://www.w3.org/TR/2001/REC-SVG-20010904/DTD/svg10.dtd">
<svg version="1.0" xmlns="http://www.w3.org/2000/svg"
 width="896.000000pt" height="896.000000pt" viewBox="0 0 896.000000 896.000000"
 preserveAspectRatio="xMidYMid meet">
<metadata>
Created by potrace 1.14, written by Peter Selinger 2001-2017
</metadata>
<g transform="translate(0.000000,896.000000) scale(0.100000,-0.100000)"
fill="#000000" stroke="none">
<path d="M4420 8949 c0 -5 -6 -9 -13 -9 -17 0 -60 -47 -81 -87 -9 -18 -16 -34
-15 -35 0 -2 -5 -16 -11 -33 -7 -16 -13 -37 -15 -47 -2 -9 -10 -29 -18 -45 -8
-15 -20 -46 -27 -68 -7 -22 -18 -53 -26 -70 -14 -32 -94 -243 -98 -260 -2 -5
-8 -23 -15 -40 -7 -16 -39 -102 -72 -190 -34 -88 -71 -187 -84 -220 -12 -33
-64 -170 -115 -305 -50 -135 -97 -258 -105 -275 -7 -16 -21 -52 -30 -80 -10
-27 -23 -63 -30 -80 -7 -16 -32 -82 -55 -145 -24 -63 -48 -128 -55 -145 -7
-16 -19 -47 -25 -68 -7 -22 -18 -51 -26 -65 -8 -15 -14 -33 -14 -40 0 -7 -4
-20 -10 -30 -20 -34 -49 -120 -43 -126 4 -3 1 -6 -5 -6 -7 0 -12 -6 -12 -12 0
-7 -30 -89 -66 -183 -36 -93 -76 -201 -90 -240 -14 -38 -29 -79 -34 -90 -12
-26 -51 -127 -55 -140 -1 -5 -5 -17 -8 -25 -4 -8 -43 -112 -88 -230 -45 -118
-92 -244 -106 -280 -13 -36 -37 -99 -53 -140 -62 -166 -73 -196 -83 -220 -6
-14 -11 -27 -11 -30 -1 -3 -6 -18 -13 -35 -17 -45 -26 -69 -28 -75 -1 -3 -5
-14 -10 -25 -30 -74 -35 -89 -35 -102 0 -10 7 -14 20 -10 11 3 23 1 26 -4 3
-5 10 -7 15 -4 5 3 55 5 111 5 57 -1 114 -2 128 -2 14 0 54 0 90 1 36 0 72 0
80 0 23 0 283 0 303 1 9 0 23 0 30 1 6 0 64 0 127 0 63 -1 174 -1 245 -1 72
-1 135 -1 140 -1 6 -1 75 0 155 0 80 0 152 0 160 0 13 0 335 -1 425 0 17 0 91
0 165 0 137 0 160 0 183 2 6 0 57 0 112 0 77 -1 288 -2 450 -2 6 -1 64 0 130
0 66 0 127 0 135 0 8 0 70 0 138 1 111 1 123 3 117 18 -4 9 -18 46 -31 82 -14
36 -29 74 -33 85 -5 11 -19 47 -31 80 -12 33 -28 74 -35 90 -11 27 -27 71 -30
85 -1 3 -9 23 -19 45 -10 22 -19 47 -21 55 -2 8 -14 44 -28 80 -76 195 -97
250 -97 256 0 3 -6 20 -14 37 -8 18 -30 75 -49 127 -20 52 -41 109 -48 125 -6
17 -13 35 -15 40 -1 6 -19 53 -39 105 -20 52 -50 131 -67 175 -60 161 -87 233
-133 355 -25 69 -50 134 -55 145 -10 21 -11 25 -144 380 -48 127 -90 237 -93
245 -3 8 -7 17 -8 20 -1 3 -5 12 -8 20 -3 8 -45 119 -92 245 -47 127 -99 264
-115 305 -16 41 -47 122 -68 180 -22 58 -43 114 -48 125 -4 11 -8 22 -8 25 -1
6 -24 64 -41 105 -7 17 -29 75 -49 130 -35 92 -81 216 -109 290 -7 17 -12 32
-12 35 0 3 -6 14 -11 25 -6 11 -19 43 -29 72 -21 58 -47 93 -85 113 -29 16
-140 23 -140 9z"/>
<path d="M3667 8148 c-30 -35 -65 -75 -78 -89 -151 -165 -187 -204 -204 -223
-18 -20 -145 -159 -207 -227 -12 -14 -54 -60 -93 -103 -79 -88 -78 -87 -196
-217 -81 -89 -152 -166 -209 -229 -21 -24 -72 -80 -208 -229 -13 -14 -56 -62
-95 -105 -40 -44 -89 -98 -110 -120 -20 -23 -50 -55 -65 -71 -15 -17 -66 -73
-113 -125 -47 -52 -106 -117 -130 -144 -24 -27 -55 -61 -69 -76 -14 -15 -59
-65 -100 -110 -41 -46 -91 -100 -110 -121 -19 -21 -62 -68 -95 -104 -33 -37
-76 -84 -95 -105 -19 -20 -64 -70 -100 -110 -36 -40 -78 -87 -95 -105 -16 -18
-65 -70 -107 -116 -42 -46 -86 -95 -98 -109 -12 -13 -57 -63 -100 -110 -43
-47 -88 -97 -100 -110 -19 -22 -133 -148 -200 -220 -14 -15 -56 -62 -95 -105
-38 -43 -78 -85 -87 -94 -10 -8 -18 -19 -18 -22 0 -6 300 -12 470 -11 14 1 86
1 160 1 137 0 160 0 183 2 6 0 57 0 112 0 55 -1 177 -2 270 -2 94 0 175 -1
180 -1 6 0 64 1 130 1 66 1 178 1 250 2 71 0 133 3 136 7 3 4 12 23 19 42 7
19 19 49 26 65 13 32 173 453 178 470 2 6 7 19 11 30 13 34 82 216 114 305 18
47 36 94 40 105 11 26 62 158 100 260 16 44 35 94 42 110 6 17 13 35 15 40 1
6 21 60 44 120 23 61 43 115 44 121 1 7 8 19 15 28 7 9 11 16 7 16 -4 0 0 14
9 30 9 17 13 30 9 30 -4 0 -2 6 3 13 13 16 48 110 45 120 -1 4 3 7 9 7 5 0 8
3 5 8 -2 4 3 23 12 42 8 19 16 37 17 40 7 28 18 59 26 75 10 23 110 285 113
300 2 6 8 24 15 40 6 17 19 50 28 75 10 25 22 48 27 52 6 4 8 8 3 8 -4 0 0 17
9 38 8 20 17 44 19 53 2 9 8 25 14 35 15 29 86 228 83 237 -1 4 2 7 8 7 5 0
10 6 10 13 0 6 36 107 80 222 44 115 80 216 80 222 0 7 5 13 10 13 6 0 9 3 8
8 -2 6 11 46 39 122 8 20 12 40 9 40 -2 0 -28 -28 -59 -62z"/>
<path d="M5230 8208 c0 -3 13 -39 29 -79 16 -41 43 -112 61 -159 17 -47 38
-99 46 -117 8 -17 14 -34 14 -39 0 -6 78 -215 115 -309 4 -11 9 -24 11 -30 4
-16 104 -278 114 -300 5 -11 66 -171 135 -355 136 -363 152 -406 166 -432 5
-10 9 -22 9 -27 0 -5 8 -26 17 -47 9 -22 18 -43 19 -49 3 -16 144 -388 159
-420 7 -16 17 -43 21 -60 4 -16 10 -34 14 -40 4 -5 16 -35 27 -65 11 -30 48
-129 82 -220 35 -91 79 -208 98 -260 20 -52 42 -109 50 -127 8 -17 16 -37 17
-45 1 -7 10 -30 19 -52 9 -21 17 -41 17 -44 0 -3 12 -35 26 -71 15 -36 27 -70
29 -76 1 -5 6 -21 12 -35 6 -14 19 -44 28 -67 18 -43 17 -42 90 -44 11 0 61 0
110 0 50 0 101 -1 115 -1 14 0 54 0 90 1 36 0 72 0 80 0 22 0 281 0 305 0 11
1 47 0 80 0 33 -1 71 -1 85 -1 38 1 353 1 370 1 8 0 80 0 160 0 80 0 152 0
160 0 8 0 62 0 120 1 58 1 112 1 120 -1 38 -9 11 25 -165 215 -6 6 -55 61
-110 121 -54 61 -116 128 -136 150 -43 47 -71 77 -159 175 -83 93 -98 109
-199 219 -46 50 -91 100 -100 110 -9 10 -54 60 -101 111 -47 51 -92 100 -100
110 -8 9 -49 54 -90 100 -41 45 -84 92 -95 104 -11 12 -59 65 -106 117 -48 52
-104 114 -125 138 -22 24 -55 61 -74 81 -37 39 -184 200 -210 231 -36 40 -166
184 -181 198 -9 9 -42 45 -74 81 -32 36 -92 103 -134 149 -42 46 -87 96 -101
111 -152 167 -187 206 -200 220 -8 9 -53 58 -100 110 -47 52 -94 104 -105 116
-11 11 -54 58 -95 104 -41 46 -95 106 -120 133 -25 27 -58 64 -75 82 -16 17
-64 69 -105 115 -110 123 -160 175 -160 168z"/>
<path d="M592 4322 c-57 -1 -102 -6 -100 -11 2 -5 38 -47 81 -93 42 -47 89
-98 103 -114 15 -16 49 -54 78 -85 46 -50 170 -186 236 -260 14 -15 57 -63 96
-106 40 -43 89 -97 110 -121 20 -24 54 -60 73 -81 20 -21 72 -78 116 -127 44
-48 91 -99 104 -113 13 -14 51 -57 85 -95 33 -38 81 -90 106 -117 43 -46 153
-166 195 -213 11 -13 58 -65 105 -116 47 -51 92 -101 100 -110 8 -9 50 -55 93
-102 42 -47 87 -97 100 -110 12 -14 60 -67 107 -118 47 -52 94 -104 105 -116
17 -18 77 -85 200 -220 11 -12 49 -54 85 -94 36 -40 81 -89 100 -110 35 -37
181 -197 210 -230 35 -39 158 -175 190 -210 19 -21 64 -70 100 -110 36 -39 79
-86 95 -104 17 -18 66 -73 110 -121 113 -126 159 -172 153 -155 -11 31 -40
106 -48 125 -8 19 -43 111 -111 295 -15 41 -44 118 -64 170 -20 52 -38 102
-39 110 -2 8 -12 33 -21 55 -26 58 -28 64 -95 245 -52 140 -77 207 -130 345
-4 11 -15 37 -24 58 -9 21 -16 42 -16 48 0 6 -7 25 -15 42 -8 18 -46 118 -85
222 -39 105 -75 199 -80 210 -5 11 -24 63 -44 115 -19 52 -62 167 -96 255 -34
88 -66 176 -72 195 -6 19 -14 40 -18 45 -4 6 -17 37 -28 70 -12 33 -48 132
-82 220 -33 88 -108 286 -166 440 -58 154 -111 283 -117 287 -7 4 -84 8 -172
8 -88 0 -167 1 -175 1 -13 0 -337 1 -425 0 -16 0 -91 0 -165 0 -137 0 -160 0
-182 -2 -7 0 -58 0 -113 0 -55 1 -176 1 -268 1 -93 0 -171 1 -175 2 -4 2 -53
2 -110 0z"/>
<path d="M2975 4322 c-2 -2 -58 -3 -124 -3 l-121 1 31 -82 c29 -80 83 -222 99
-263 4 -11 22 -58 40 -105 18 -47 36 -94 40 -105 17 -39 85 -220 85 -225 0 -3
6 -18 12 -35 19 -45 36 -89 38 -95 1 -3 7 -18 13 -33 7 -16 12 -31 12 -34 0
-8 47 -131 61 -158 6 -12 11 -27 13 -35 1 -8 10 -32 19 -54 9 -21 17 -42 17
-47 0 -5 4 -17 9 -27 14 -28 28 -63 51 -127 11 -33 24 -69 29 -80 5 -11 14
-33 20 -50 6 -16 16 -43 22 -60 7 -16 13 -32 14 -35 1 -3 5 -12 8 -20 6 -13
56 -148 94 -254 8 -22 17 -45 21 -50 3 -6 7 -15 8 -21 2 -9 114 -309 148 -395
8 -19 23 -60 35 -90 11 -30 26 -68 32 -85 7 -16 13 -34 15 -40 1 -5 17 -46 34
-90 18 -44 33 -84 34 -90 1 -5 7 -19 13 -30 6 -11 11 -24 11 -28 0 -8 15 -49
37 -102 7 -16 25 -64 40 -105 15 -41 33 -88 40 -105 13 -31 23 -58 100 -265
26 -69 50 -134 55 -145 22 -53 70 -182 70 -187 0 -3 8 -23 17 -44 9 -22 17
-41 18 -44 0 -5 19 -56 35 -95 21 -53 62 -161 65 -170 2 -9 18 -52 32 -85 3
-8 7 -17 8 -20 25 -79 126 -128 207 -101 40 13 90 63 106 106 6 17 17 44 23
60 7 17 13 35 14 40 3 9 81 214 100 260 4 11 9 25 10 30 2 6 14 40 28 75 29
74 45 115 151 395 42 110 79 207 81 215 2 8 31 84 63 168 33 83 57 152 55 152
-3 0 -1 6 4 13 5 6 20 41 33 77 13 36 27 69 32 74 4 6 8 20 8 31 0 12 3 25 8
29 4 4 7 11 8 14 0 4 6 21 13 37 19 44 55 139 56 145 0 3 3 10 6 15 5 8 29 74
34 95 1 3 9 22 18 42 10 21 17 42 17 48 0 6 4 18 9 28 17 32 51 125 51 138 0
8 4 14 8 14 5 0 9 6 9 13 0 13 43 127 101 272 11 28 32 83 46 124 14 40 31 80
37 87 6 8 9 14 5 14 -3 0 -1 12 6 28 31 78 149 389 152 402 2 8 11 31 19 50 9
19 25 60 36 90 11 30 26 69 32 85 7 17 13 35 15 40 1 6 23 64 49 130 25 66 51
134 57 150 5 17 12 37 16 45 3 8 6 17 7 20 1 3 6 16 12 30 36 85 42 101 42
103 -1 4 13 43 24 67 6 14 11 28 13 33 1 4 2 8 4 10 1 1 3 9 5 17 2 8 17 50
34 93 17 43 31 85 31 93 0 12 -28 14 -167 14 -93 1 -175 1 -183 1 -13 0 -337
1 -425 0 -16 0 -91 0 -165 0 -137 0 -160 0 -182 -2 -7 0 -58 0 -113 0 -77 1
-288 2 -450 2 -5 1 -64 0 -130 0 -66 0 -127 0 -135 0 -8 0 -80 0 -160 0 -80 0
-152 0 -160 0 -13 0 -335 1 -425 0 -16 0 -91 0 -165 0 -74 0 -144 0 -155 0
-31 -1 -135 0 -183 2 -24 1 -45 0 -47 -1z"/>
<path d="M6775 4322 c-2 -2 -49 -4 -104 -4 -55 0 -100 -3 -99 -6 1 -4 -1 -14
-5 -22 -3 -8 -24 -64 -47 -125 -78 -209 -199 -531 -245 -649 -25 -65 -45 -125
-45 -133 0 -7 -5 -13 -12 -13 -6 0 -9 -3 -6 -6 4 -3 -9 -44 -29 -92 -19 -48
-36 -94 -38 -102 -2 -8 -10 -32 -19 -52 -9 -20 -43 -110 -76 -200 -33 -90 -67
-175 -76 -190 -8 -15 -14 -29 -13 -30 4 -5 -24 -83 -34 -95 -5 -7 -7 -13 -4
-13 5 0 -22 -75 -52 -145 -12 -26 -35 -89 -37 -95 0 -3 -4 -12 -7 -20 -11 -25
-109 -284 -111 -295 -3 -10 -15 -41 -39 -100 -6 -16 -12 -32 -13 -35 0 -3 -4
-14 -9 -25 -24 -58 -47 -121 -49 -132 -1 -7 -5 -16 -9 -19 -4 -4 -7 -16 -7
-26 0 -10 -5 -18 -11 -18 -5 0 -8 -4 -4 -9 3 -5 1 -12 -5 -16 -5 -3 -10 -16
-10 -29 0 -12 -4 -26 -9 -32 -7 -7 -29 -64 -36 -94 -1 -3 -7 -18 -14 -35 -7
-16 -33 -84 -57 -150 -25 -66 -48 -129 -53 -140 -25 -58 -51 -129 -51 -141 0
-8 -4 -14 -10 -14 -5 0 -9 -3 -8 -7 2 -5 -3 -24 -10 -43 -8 -19 -22 -57 -32
-85 -10 -27 -21 -59 -25 -70 -5 -11 -9 -24 -11 -30 -1 -5 -6 -19 -10 -30 -4
-11 8 -2 27 20 19 23 53 61 76 85 23 25 50 54 60 66 15 18 99 110 211 233 13
14 56 62 95 105 40 44 86 94 102 111 17 18 62 68 101 111 40 44 82 91 95 105
13 14 53 58 89 98 36 40 79 87 95 105 17 18 68 75 115 126 86 95 135 149 187
206 15 17 57 64 93 103 36 40 81 90 100 110 19 21 69 75 110 120 41 46 89 98
105 116 17 18 59 65 95 105 36 39 79 86 95 104 31 34 165 182 245 270 25 27
56 61 69 75 13 14 53 59 90 100 36 41 71 79 76 85 22 24 218 238 284 312 25
27 68 74 95 104 28 31 92 100 141 155 50 55 104 114 120 132 17 17 53 57 80
88 49 56 137 153 171 187 10 10 15 20 12 23 -4 5 -58 6 -188 4 -8 0 -42 0 -75
1 -33 1 -64 1 -70 0 -5 -1 -13 -2 -17 -1 -5 1 -33 2 -63 2 -30 0 -58 -1 -62
-2 -5 -1 -12 -1 -18 1 -24 4 -376 2 -381 -3 -3 -3 -12 -3 -20 0 -15 5 -793 10
-799 5z"/>
</g>
</svg>
